<svg xmlns="http://www.w3.org/2000/svg" xmlns:xlink="http://www.w3.org/1999/xlink" viewBox="0 0 489.8 489.8"><defs><linearGradient id="a" x1="322.23" y1="111.42" x2="-298.79" y2="1183.31" gradientUnits="userSpaceOnUse"><stop offset="0.19" stop-color="#ededed"/><stop offset="1" stop-color="#ffde00"/></linearGradient></defs><title>500</title><rect width="489.8" height="489.8" rx="72.79" ry="72.79" style="fill:url(#a)"/><path d="M426,368.66v5c0,6-1.35,61.94-2,70.78s-6,9.57-8.61,9.57H192.06c-7.14,0-12.7-3.91-15-9.12-3.06-6.91-2-13,3.17-17.31C183.56,424.51,242.73,361,268,334c6.46-6.91,11.33-12.32,13.26-14.36-14.17-15.76-100.65-112.59-101-117.24-0.23-3.74-.23-9.48-0.23-13.33L180.16,177H400v77H386l-2.27-12.49c-1.13-5.78-2.15-11.86-3.63-17.64a87.47,87.47,0,0,0-3.63-10.29,24.07,24.07,0,0,0-1.13-2.48L254.86,211c15.87,18.25,58.83,68.83,71.86,85.38a35,35,0,0,1,4.53,6.87,9.85,9.85,0,0,1,.23,8.37,29.42,29.42,0,0,1-5,7.6C310.62,338.19,264.83,386,243.75,407H391.22c1.81-4,5-14.75,8.16-22.91l2-5.67c4.19-11.45,11.44-11.51,22.1-10.26Z" transform="translate(-55.72 -70.98)" style="fill:#333"/></svg>